# xmcd CD database file
#
# Track frame offsets:
#	150
#	14415
#	22860
#	36672
#	46205
#	66855
#	77212
#	87495
#	99725
#	110567
#	125355
#	134882
#	143520
#	158210
#
# Disc length: 2319 seconds
#
# Revision: 3
# Processed by: cddbd v1.5.2PL0 Copyright (c) Steve Scherf et al.
# Submitted via: CDex 1.51
#
DISCID=c3090d0e
DTITLE=Various Artist - What's Shakin'
DYEAR=1900
DGENRE=Blues Rock
TTITLE0=Good Time Music - The Lovin' Spoonful
TTITLE1=Almost Grown - The Lovin' Spoonful
TTITLE2=Spoonful - The Paul Butterfield Blues Band
TTITLE3=Off The Wall - The Paul Butterfield Blues Band
TTITLE4=Can't Keep From Crying Sometimes - Al Kooper
TTITLE5=I Want To Know - Eric Clapton and The Powerhouse
TTITLE6=Crossroads - Eric Clapton and The Powerhouse
TTITLE7=Lovin' Cup - The Paul Butterfield Blues Band
TTITLE8=Good Morning Little Schoolgirl - The Paul Butterfield Blues Band
TTITLE9=Steppin' Out - Eric Clapton and The Powerhouse
TTITLE10=I'm In Love Again - Tom Rush
TTITLE11=Don't Bank On It Baby - The Lovin' Spoonful
TTITLE12=Searchin' - The Lovin' Spoonful
TTITLE13=One More Mile - The Paul Butterfield Blues Band
EXTD=
EXTT0=
EXTT1=
EXTT2=
EXTT3=
EXTT4=
EXTT5=
EXTT6=
EXTT7=
EXTT8=
EXTT9=
EXTT10=
EXTT11=
EXTT12=
EXTT13=
PLAYORDER=
